<mxfile host="app.diagrams.net" modified="2024-01-05T02:36:08.562Z" agent="Mozilla/5.0 (Windows NT 10.0; Win64; x64) AppleWebKit/537.36 (KHTML, like Gecko) Chrome/120.0.0.0 Safari/537.36" etag="gIdilbaeD9pLEOvJdrNk" version="22.1.16" type="github">
  <diagram id="C5RBs43oDa-KdzZeNtuy" name="Page-1">
    <mxGraphModel dx="1050" dy="530" grid="1" gridSize="10" guides="1" tooltips="1" connect="1" arrows="1" fold="1" page="1" pageScale="1" pageWidth="3300" pageHeight="2339" math="0" shadow="0">
      <root>
        <mxCell id="WIyWlLk6GJQsqaUBKTNV-0" />
        <mxCell id="WIyWlLk6GJQsqaUBKTNV-1" parent="WIyWlLk6GJQsqaUBKTNV-0" />
        <mxCell id="Xz1nmAx9QvrgqzK91KpJ-3" value="&lt;font style=&quot;font-size: 15px;&quot;&gt;开始&lt;/font&gt;" style="rounded=1;whiteSpace=wrap;html=1;" parent="WIyWlLk6GJQsqaUBKTNV-1" vertex="1">
          <mxGeometry x="185" y="100" width="110" height="40" as="geometry" />
        </mxCell>
        <mxCell id="Xz1nmAx9QvrgqzK91KpJ-4" value="&lt;font style=&quot;font-size: 15px;&quot;&gt;结束&lt;/font&gt;" style="rounded=1;whiteSpace=wrap;html=1;" parent="WIyWlLk6GJQsqaUBKTNV-1" vertex="1">
          <mxGeometry x="187.5" y="850" width="105" height="50" as="geometry" />
        </mxCell>
        <mxCell id="Xz1nmAx9QvrgqzK91KpJ-5" value="助理整理好一周的门禁数据" style="rounded=0;whiteSpace=wrap;html=1;" parent="WIyWlLk6GJQsqaUBKTNV-1" vertex="1">
          <mxGeometry x="170" y="200" width="130" height="60" as="geometry" />
        </mxCell>
        <mxCell id="Xz1nmAx9QvrgqzK91KpJ-7" value="将整理好的表格发给待整理的部门" style="rounded=0;whiteSpace=wrap;html=1;" parent="WIyWlLk6GJQsqaUBKTNV-1" vertex="1">
          <mxGeometry x="170" y="310" width="130" height="60" as="geometry" />
        </mxCell>
        <mxCell id="Xz1nmAx9QvrgqzK91KpJ-9" value="部门在“分析表”的基础上新增姓名、岗位、回复人、备注。" style="rounded=0;whiteSpace=wrap;html=1;" parent="WIyWlLk6GJQsqaUBKTNV-1" vertex="1">
          <mxGeometry x="170" y="420" width="130" height="60" as="geometry" />
        </mxCell>
        <mxCell id="Xz1nmAx9QvrgqzK91KpJ-10" value="向各超出门禁人员主管发送邮件，询问理由（备注）" style="rounded=0;whiteSpace=wrap;html=1;" parent="WIyWlLk6GJQsqaUBKTNV-1" vertex="1">
          <mxGeometry x="170" y="520" width="130" height="60" as="geometry" />
        </mxCell>
        <mxCell id="Xz1nmAx9QvrgqzK91KpJ-11" value="接受回复邮件，将回复人、理由填入“分析表”" style="rounded=0;whiteSpace=wrap;html=1;" parent="WIyWlLk6GJQsqaUBKTNV-1" vertex="1">
          <mxGeometry x="170" y="620" width="130" height="60" as="geometry" />
        </mxCell>
        <mxCell id="SEK0KGETxBTAh0PKZT3X-0" value="新建“整理表”，里面包含部门、岗位、次数、理由。最后一栏为进出的总次数" style="rounded=0;whiteSpace=wrap;html=1;" vertex="1" parent="WIyWlLk6GJQsqaUBKTNV-1">
          <mxGeometry x="170" y="720" width="130" height="60" as="geometry" />
        </mxCell>
      </root>
    </mxGraphModel>
  </diagram>
</mxfile>
